<?xml version="1.0" encoding="utf-8"?>
<!-- Generator: Adobe Illustrator 27.3.1, SVG Export Plug-In . SVG Version: 6.00 Build 0)  -->
<svg version="1.1" id="Solid_x5F_logo_x5F_SECROX_xA0_Image_00000026848180691437019030000016673873340655423892_"
	 xmlns="http://www.w3.org/2000/svg" xmlns:xlink="http://www.w3.org/1999/xlink" x="0px" y="0px" viewBox="0 0 480 480"
	 style="enable-background:new 0 0 480 480;" xml:space="preserve">
<path d="M368.5,237.7c0,24,0,48,0,72c0,1-0.3,1.6-1.2,2.1c-15.1,8.7-30.2,17.5-45.3,26.3c-14.9,8.6-29.8,17.3-44.7,25.9
	c-12.2,7.1-24.4,14.1-36.6,21.2c-0.8,0.4-1.3,0.2-1.8-0.2c-7.4-4.3-14.9-8.6-22.3-12.9c-14.5-8.4-29-16.9-43.5-25.3
	c-20.3-11.8-40.6-23.5-60.8-35.3c-0.4-0.2-0.6-0.7-0.7-1.2c-0.1-0.3,0-0.6,0-1c0-47.7,0-95.4,0-143.1c0-1.4,0.4-2.1,1.6-2.8
	c13.9-8,27.7-16,41.5-24c10.8-6.2,21.6-12.5,32.3-18.8c17.1-9.9,34.2-19.8,51.3-29.8c1.3-0.8,2.2-0.7,3.5,0.1
	c7.4,4.4,14.9,8.6,22.3,12.9c14.7,8.5,29.3,17,43.9,25.5c19.6,11.4,39.3,22.8,58.9,34.1c1.2,0.7,1.6,1.4,1.6,2.8
	C368.5,190.1,368.5,213.9,368.5,237.7z M365.8,165.4c-2-1.1-3.8-2.2-5.6-3.2c-13.9-8-27.7-16.1-41.6-24.1
	c-15.4-9-30.9-17.9-46.3-26.9c-10.3-6-20.6-11.9-30.9-17.9c-1-0.6-1.7-0.6-2.7,0c-9,5.2-18,10.4-27,15.6
	c-13.8,8-27.5,15.9-41.3,23.9c-17.9,10.4-35.9,20.8-53.8,31.2c-0.7,0.4-1.5,0.9-2.4,1.4c2,1.1,3.8,2.1,5.5,3.2
	c19.6,11.3,39.1,22.7,58.7,34c20,11.6,39.9,23.2,59.9,34.8c1.2,0.7,2,0.7,3.3,0c13.4-7.8,26.8-15.6,40.2-23.4
	c15.6-9.1,31.2-18.1,46.9-27.2c8.8-5.1,17.6-10.2,26.4-15.3C358.6,169.6,362,167.6,365.8,165.4z M241,382.4c0.7-0.4,1.3-0.7,1.8-1
	c10.2-6,20.4-11.9,30.7-17.9c17.6-10.2,35.1-20.4,52.7-30.5c12.9-7.5,25.8-15,38.8-22.5c1.2-0.7,1.6-1.4,1.6-2.8
	c0-45.9,0-91.8,0-137.7c0-0.7,0-1.5,0-2.4c-0.7,0.4-1.2,0.6-1.7,0.9c-10.1,5.9-20.2,11.8-30.3,17.7c-16.9,9.8-33.8,19.6-50.7,29.4
	c-13.8,8-27.6,16.1-41.5,24.1c-0.9,0.5-1.2,1-1.2,2c0,46.4,0,92.9,0,139.3C241,381.4,241,381.8,241,382.4z M113.6,167.6
	c0,0.8,0,1.3,0,1.8c0,46.1,0,92.2,0,138.4c0,1.5,0.5,2.3,1.7,3c11.1,6.4,22.2,12.8,33.2,19.2c14.9,8.6,29.8,17.3,44.7,25.9
	c14,8.1,27.9,16.2,41.9,24.3c1.2,0.7,2.5,1.4,3.9,2.3c0-0.6,0-1,0-1.5c0-46.4,0-92.9,0-139.3c0-1-0.3-1.5-1.2-2
	c-40.2-23.3-80.5-46.7-120.7-70C116,169,114.9,168.4,113.6,167.6z" fill="currentColor"/>
<path d="M14.6,36.7c-1.8,2.2-2.1,4.8-2.5,7.4c-0.9,5.8-0.6,11.5,1.2,17.1c0.9,2.9,2.2,5.9,3.7,8.5c4.9,8.5,11,16.1,18.4,22.6
	c4,3.5,7.6,7.3,11.7,10.6c8.4,6.9,17,13.7,25.6,20.4c8.7,6.9,17.9,13,27.4,18.8c4.5,2.8,9.3,5.1,14,7.6c0.4,0.2,0.8,0.4,1.3,0.7
	c-0.3,0.7-0.6,1.3-1,2.1c-2-1-3.9-2-5.8-3c-9-5-18-9.9-26.8-15.1c-12.6-7.4-24.4-15.9-36.3-24.2c-8-5.6-16-11.3-23.7-17.4
	c-5.8-4.6-11-9.9-14.3-16.7c-0.1-0.3-0.3-0.5-0.7-1C7,79.1,7.8,82.7,9,86.3c1.9,5.8,5.1,10.9,8.9,15.7c3.5,4.5,7.2,8.9,11.1,13.1
	c3.1,3.4,6.5,6.7,10.2,9.4c5.9,4.3,12.1,8.3,18.3,12.1c5.7,3.6,11.5,6.9,17.3,10.2c6.1,3.4,12.4,6.6,18.6,10
	c2.1,1.1,4.2,2.3,6.3,3.6c-0.4,0.7-0.7,1.3-1,2c-2.1-1-4.2-2-6.1-3.1c-6.1-3.3-12.5-5.9-19-8.3c-8.1-3.1-15.5-7.6-23.1-11.6
	c-5-2.6-10-5.1-14.8-7.9c-6.6-3.7-13.1-7.5-19.5-11.5c-2.4-1.5-4.3-3.6-6.5-5.5c0.1,2.3,0.6,4.7,1.5,6.9c2,4.4,4.5,8.5,7.7,12.1
	c8.4,9.8,18.7,17.3,29.8,23.7c11.9,6.9,24.2,13,36.7,18.7c4.1,1.8,8.2,3.7,12.2,5.5c0.4,0.2,0.7,0.3,1.1,0.5
	c-0.1,0.2-0.1,0.4-0.1,0.5c-0.6,1.7-0.6,1.5-2.3,1c-3.7-1.1-7.4-2-11.1-2.9c-3.6-0.9-7.2-1.6-10.8-2.5c-13-3.4-25.3-8.6-37.4-14.3
	c-1.1-0.5-2.3-1.1-3.6-1.6c0.6,1.1,1.2,2.3,1.9,3.4c2.8,4,6.2,7.4,9.9,10.6c8.6,7.3,18.1,13.3,28.6,17.4c7.7,3.1,15.7,5.4,23.8,7.3
	c0.4,0.1,0.8,0.2,1.2,0.3c-0.2,0.7-0.3,1.4-0.4,2.1c-1.3-0.2-2.5-0.4-3.8-0.5c-1.7-0.1-3.4-0.2-5.1-0.2c-6.4-0.1-12.9-0.3-19.1-2.3
	c-0.4-0.1-0.8-0.2-1.4,0c0.6,1,1,2.1,1.7,3c2.1,2.7,5,4.6,7.9,6.3c6,3.4,12.4,5.4,19.2,6.5c3.2,0.5,6.4,1,9.7,1.5
	c-0.1,0.7-0.2,1.3-0.3,2.1c-0.7-0.1-1.5-0.2-2.2-0.3c-4.9-0.9-9.8-1.5-14.6-2.7c-6.8-1.7-13-4.7-18.5-9c-2.2-1.8-4-3.9-4.9-6.6
	c-0.2-0.5-0.3-1-0.3-1.5c-0.1-1.4,0.8-2.2,2.2-1.9c2.4,0.6,4.9,1.4,7.3,1.7c3.4,0.5,6.9,0.8,10.4,1.1c0-0.1,0.1-0.2,0.1-0.3
	c-1.2-0.4-2.4-0.8-3.7-1.2c-14.8-4.2-27.8-11.6-39.5-21.5c-3.7-3.1-7.1-6.6-9.8-10.6c-1.3-1.9-2.1-4.2-3-6.3
	c-0.2-0.4-0.2-1.1-0.1-1.5c0.1-0.5,0.5-1.1,0.9-1.3c0.4-0.1,1,0.2,1.4,0.5c1.5,1,2.9,2.4,4.5,3.1c12.1,5.8,24.4,11,37.4,14.3
	c2.4,0.6,4.8,1.3,7.2,2c0.8,0.2,1.6,0.3,2.5,0.2c-0.4-0.2-0.8-0.5-1.2-0.7c-8-4-16.1-7.8-24.1-11.9c-9-4.6-17.7-9.6-25.8-15.7
	c-6.8-5.2-13.2-10.9-18.4-17.8c-3.4-4.5-6.2-9.4-7.1-15c-0.3-1.7-0.2-3.4-0.2-5.1c0-0.9,0.5-1.6,1.5-1.8c1-0.1,1.4,0.5,1.8,1.3
	c1,2.1,2.5,3.8,4.4,5.1c5,3.3,9.9,6.7,15.1,9.7c9.9,5.5,20,10.8,30,16.1c3,1.6,5.9,3.1,8.9,4.6c0.1-0.1,0.1-0.2,0.2-0.3
	c-0.5-0.3-1.1-0.6-1.6-1c-9.8-6-19.7-11.7-29-18.5c-4.4-3.2-8.3-7-12-11C21.4,110.1,16.3,104,12,97.4c-3.9-6.1-6.4-12.7-7.2-19.8
	c-0.1-1.2-0.2-2.5-0.2-3.7c0-0.9,0.4-1.8,1.4-2c1.1-0.2,1.9,0.3,2.4,1.2c0.5,0.9,0.9,1.8,1.4,2.6c1.9,3.8,4.7,6.9,7.5,9.9
	c5.1,5.4,11.1,9.8,17.2,14.1c11,7.8,22.1,15.4,33.2,23c0.2,0.1,0.4,0.2,0.7,0.1c-2.8-2.2-5.6-4.4-8.3-6.5
	c-8.9-6.9-17.3-14.4-25.7-22c-6.2-5.7-11.6-12.1-16.5-19c-1.8-2.6-3.2-5.4-4.7-8.2C10.4,62,9.5,56.3,9.4,50.6
	c-0.1-4.5,0.3-9,2.1-13.3c0.4-0.9,0.9-1.7,1.4-2.5c0.5-0.8,1.3-1.2,2.3-0.8c1,0.4,1.6,1,1.6,2.2c0,1.4-0.2,2.8,0,4.2
	c0.2,1.5,0.7,3.1,1.3,4.5c4.3,9.3,11.1,16.7,19,23c6.2,4.9,12.5,9.7,18.8,14.6c11.4,8.8,23.3,16.9,35.3,24.9c4.2,2.8,8.7,5.1,13,7.8
	c10.7,6.6,21.4,13.3,32.1,19.9c0.8,0.5,1.7,1.1,2.6,1.7c-0.4,0.7-0.8,1.2-1.1,1.9c-0.8-0.5-1.5-0.9-2.2-1.4
	c-8.6-5.4-17.2-10.9-25.9-16.3c-6.1-3.8-12.5-7.1-18.4-11c-10-6.7-20-13.6-29.7-20.7c-8.1-5.9-16.1-12-24-18.2
	c-5.8-4.6-11.5-9.4-15.7-15.6c-2.5-3.7-4.6-7.7-6.5-11.7c-0.8-1.7-0.6-3.8-0.8-5.7C14.5,37.6,14.6,37.1,14.6,36.7z" fill="currentColor"/>
<path d="M395.8,178.2c1.2-0.2,2.4-0.4,3.6-0.7c14-3.5,27.5-8.7,40.6-14.7c2.7-1.2,5.4-2.5,7.6-4.8c0.8-0.8,2-0.3,2,0.9
	c0,1.2-0.3,2.5-0.7,3.7c-1,3-3,5.4-5.1,7.8c-4.8,5.7-10.6,10.2-16.6,14.4c-10.1,7-21,11.9-32.8,15.1c-0.3,0.1-0.5,0.2-0.8,0.5
	c0.7-0.1,1.5-0.2,2.2-0.2c0.8-0.1,1.5-0.1,2.3-0.1c4.5,0,8.7-1.4,12.9-2.4c1.8-0.4,2.8,0.4,2.4,2.3c-0.4,2.2-1.4,4.1-3.1,5.6
	c-2.1,1.9-4.2,3.7-6.6,5.1c-6.5,3.9-13.5,6.3-21,7.4c-2.9,0.4-5.8,0.9-8.8,1.4c-0.3,0-0.6,0-1,0.1c-0.1-0.7-0.2-1.3-0.4-2.1
	c2.5-0.3,4.9-0.6,7.3-1c7-1.1,13.9-2.8,20.2-6.2c2.6-1.4,5.1-3.2,7.5-5c1.7-1.3,2.8-3,3.7-5.3c-1.2,0.3-2.2,0.5-3.2,0.8
	c-3.5,1.1-7.1,1.5-10.8,1.6c-4.2,0.1-8.3,0.3-12.4,0.5c-1,0-2,0.3-3.1,0.5c-0.2-0.8-0.3-1.4-0.4-2c5.6-1.6,11.1-3.3,16.6-4.9
	c11.5-3.4,21.9-9,31.6-16c5.5-4.1,10.7-8.6,14.8-14.1c0.9-1.3,1.7-2.7,2.4-4.2c-8.2,4.1-16.5,7.6-25,10.7c-6.4,2.4-13,4.3-19.5,6.1
	c-4.2,1.2-8.5,1.7-12.8,2.7c-2,0.5-4,1-5.9,1.8c-1.2,0.5-1.6,0.2-1.9-0.9c-0.1-0.2-0.2-0.4-0.3-0.7c3-1.3,5.9-2.5,8.8-3.9
	c11.7-5.6,23.5-10.9,34.7-17.3c5.2-3,10.4-5.9,15.4-9.2c8.5-5.7,16.3-12.2,22.6-20.3c3.5-4.5,6.5-9.4,7.4-15.3
	c0.1-0.6,0.1-1.2,0.2-1.7c-1.9,1.6-3.8,3.3-5.7,4.9c-1.2,1-2.5,1.7-3.8,2.6c-7.1,4.6-14.5,8.6-22,12.5c-7.3,3.8-14.4,7.8-21.7,11.5
	c-4.2,2.1-8.5,4-12.8,5.7c-7.2,2.9-14.3,6.1-21.2,9.8c-0.6,0.3-1.2,0.6-1.9,1c-0.4-0.6-0.7-1.2-1.1-1.9c0.5-0.3,1-0.7,1.5-1
	c6.9-3.7,13.8-7.4,20.7-11.1c13.2-7.2,26-14.9,38.2-23.7c4.6-3.3,8.4-7.4,12.1-11.5c5.2-5.7,10.1-11.7,14.1-18.3
	c3.6-5.8,5.5-12.2,6.3-18.9c0-0.2,0-0.4,0-0.9c-0.4,0.8-0.7,1.3-1,1.8c-3.1,5.8-7.5,10.7-12.6,14.8c-6.3,5.2-12.8,10.1-19.5,14.8
	c-11.1,7.8-22.2,15.4-33.5,22.8c-11.6,7.6-23.8,14.3-36.1,20.8c-1.6,0.8-3.2,1.6-4.9,2.5c-0.3-0.6-0.6-1.2-1-1.9
	c0.7-0.4,1.4-0.9,2.1-1.2c11-5.3,21.3-11.9,31.1-19.1c8.4-6.1,16.6-12.4,24.8-18.7c8-6.3,15.4-13.2,22.9-20
	c6.1-5.6,11.3-11.9,15.7-18.8c4-6.1,6.8-12.8,6.9-20.3c0.1-4.9-0.1-9.7-1.9-14.4c-0.2-0.5-0.5-1-0.8-1.5c-0.1,2,0.1,3.8-0.4,5.5
	c-0.6,2.2-1.6,4.3-2.7,6.4c-3.2,6.4-7.8,11.8-13,16.7c-6,5.6-12.7,10.4-19.2,15.4c-8.2,6.2-16.4,12.4-24.8,18.3
	c-10.3,7.3-21.1,13.9-31.9,20.4c-10.3,6.1-20.4,12.7-30.6,19c-0.2,0.1-0.3,0.2-0.6,0.4c-0.4-0.6-0.8-1.1-1.3-1.8
	c0.6-0.4,1.1-0.8,1.7-1.2c12-7.4,24.1-14.8,36.1-22.3c6-3.8,12.1-7.5,18-11.5c8.3-5.7,16.6-11.4,24.7-17.4c8-6,15.9-12.2,23.7-18.6
	c4.7-3.8,9-8.2,12.3-13.4c2.2-3.4,4.4-6.8,5.4-10.8c0.3-1.1,0.2-2.3,0.2-3.4c0-0.7-0.1-1.4-0.1-2.2c0-1.1,0.6-1.7,1.5-2.1
	c1-0.4,1.9-0.1,2.3,0.7c1,1.9,2.1,3.9,2.6,6c0.6,2.9,1.1,6,1,9c-0.1,3.5-0.5,7-1.3,10.4c-1.3,5.8-4.1,11.1-7.6,15.8
	c-3.2,4.3-6.5,8.7-10.2,12.6c-4.6,4.8-9.6,9.4-14.7,13.8c-8.2,7-16.7,13.7-25.1,20.5c-0.1,0.1-0.2,0.2-0.6,0.6
	c0.5-0.2,0.7-0.3,0.9-0.4c13.3-9.3,26.5-18.5,39.7-27.9c5-3.5,9.5-7.7,13.6-12.3c2.4-2.8,4.4-5.9,6.1-9.2c0.1-0.3,0.3-0.6,0.4-0.8
	c0.5-0.8,1.1-1.2,2.1-1c1,0.2,1.6,0.9,1.5,1.9c-0.1,2.1-0.2,4.2-0.5,6.2c-1.5,9-5.9,16.6-11.3,23.8c-4.5,5.9-9.5,11.5-14.7,16.8
	c-2.1,2.1-4.4,4-6.8,5.9c-7.1,5.5-15,10-22.6,14.8c-3.1,1.9-6.2,3.7-9.3,5.8c0.8-0.4,1.7-0.7,2.5-1.1c5.9-3.1,11.7-6.2,17.6-9.3
	c4.9-2.6,10-5.1,14.8-7.8c5.9-3.4,11.8-6.9,17.6-10.5c2.5-1.6,4.8-3.5,6.3-6.1c0.2-0.3,0.3-0.5,0.4-0.8c0.3-0.8,0.7-1.2,1.6-1.1
	c0.9,0.1,1.5,0.6,1.5,1.6c-0.1,2.2,0,4.4-0.4,6.5c-1.4,6.4-4.9,11.7-9,16.6c-5,6-10.9,11.2-17.2,15.8c-5.6,4-11.3,7.8-17.4,11
	c-7.9,4-15.8,8.2-23.7,12.3c-2.9,1.5-6,2.8-9,4.2C395.8,177.9,395.8,178.1,395.8,178.2z" fill="currentColor"/>
<path d="M247.7,406.3c2.2,0,4.4-0.3,6.6,0c5.9,0.8,8.2,7,4.4,11.7c-0.8,1-1.9,1.9-3,2.8c-0.8,0.7-0.8,1.2-0.2,1.9
	c1.9,2.2,3.8,4.4,4.7,7.2c0.6,1.9,0.9,3.9,1.3,5.8c0.2,0.8-0.1,1.2-1,1.1c-1.6-0.1-3.1,0-4.7,0c-0.8,0-1.2-0.2-1.2-1.1
	c-0.3-3.2-1.2-6.2-2.8-9c-1-1.8-1.8-2.3-2.9-2c-1.9,0.6-3.3,2.1-3.1,3.9c0.2,2.1,0.7,4.2,1,6.3c0.1,0.4,0.3,0.7,0.2,1
	c-0.1,0.3-0.4,0.8-0.6,0.8c-1.7,0.1-3.4,0.1-5,0c-0.4,0-1-0.7-1.1-1.2c-0.3-1.8-0.6-3.6-0.6-5.5c-0.2-6.8-0.3-13.7,0.6-20.5
	c0-0.1,0-0.2,0-0.4c0.5-3.1,0.7-3.2,3.8-3.2c1.2,0,2.4,0,3.6,0C247.7,406.1,247.7,406.2,247.7,406.3z M245.4,416.8
	c0.1,1,0,1.8,0.2,2.4c0.2,0.4,0.9,1,1.2,0.9c3-0.9,5.6-2.4,7.2-5.2c0.6-1,0.5-2.1-0.3-3c-1.3-1.5-3-1.5-4.9-1.3
	c-1.6,0.2-2.6,1.1-2.9,2.6C245.7,414.5,245.6,415.8,245.4,416.8z" fill="currentColor"/>
<path d="M275.4,437.4c-1.6-0.2-3.2-0.2-4.8-0.5c-3.9-0.9-6.5-3.9-7.1-8.2c-0.9-6.6,0.6-12.8,4.4-18.3c0.7-1,1.6-2,2.6-2.8
	c3.2-2.6,6.7-2.6,10,0c0.5,0.4,1.1,0.9,1.5,1.4c4.8,6,6.7,12.9,5.3,20.5c-0.9,5.1-4.5,7.8-9.7,7.8c-0.7,0-1.4,0-2.2,0
	C275.4,437.3,275.4,437.4,275.4,437.4z M269.3,423.7c-0.1,4.1,1.1,6.1,3.9,6.6c1.6,0.3,3.3,0.2,5-0.1c1.9-0.3,3.1-1.7,3.4-3.6
	c0.6-4.7-0.2-9.2-3-13.1c-1.9-2.7-4.1-2.6-6.1,0c-0.5,0.7-0.9,1.4-1.3,2.1C269.8,418.5,269.4,421.3,269.3,423.7z" fill="currentColor"/>
<path d="M307.6,436.8c-0.6,0-1.1,0-1.7,0c-1.7,0-1.7-0.1-1.9-1.8c-0.3-2.1-0.7-4.2-1.2-6.2c-0.3-1-0.9-1.9-1.5-2.7
	c-0.9-1.2-1.5-1.3-2.5-0.1c-0.9,1.1-1.8,2.3-2.3,3.6c-0.7,1.9-1,4-1.4,6.1c-0.2,1-0.6,1.3-1.5,1.2c-1-0.1-2.1-0.1-3.1,0
	c-1,0.1-1.3-0.3-1.3-1.3c0.1-3.7,1.4-7,3.7-9.9c0.9-1.2,1.9-2.4,2.9-3.5c0.8-0.9,0.8-1.8,0-2.7c-0.5-0.7-1-1.3-1.6-2
	c-2.3-2.9-3.5-6.2-3.6-9.8c0-1.1,0.3-1.6,1.4-1.5c1.4,0,2.7,0.1,4.1,0c1-0.1,1.2,0.4,1.3,1.2c0.2,1.9,0.4,3.7,0.8,5.6
	c0.3,1.2,0.9,2.5,1.6,3.6c0.7,1.1,1.4,1,2.1-0.1c1.4-2.3,2-4.9,1.9-7.6c-0.1-2.7-0.1-2.7,2.6-2.7c0.1,0,0.2,0,0.4,0
	c3.1,0,3.2,0.2,3,3.3c-0.2,3.6-1.3,6.7-3.7,9.4c-1.6,1.9-1.6,2.1-0.1,4.1c2.7,3.7,4.6,7.7,4.6,12.3c0,1.6,0,1.6-1.6,1.6
	C308.8,436.8,308.2,436.8,307.6,436.8z" fill="currentColor"/>
<path d="M171.4,423.8c0.2,0.8,0.4,1.6,0.7,2.4c1.4,4.4,6.8,6.4,10.8,4.1c2.1-1.2,2.4-3.6,0.5-5c-1.1-0.8-2.4-1.3-3.7-1.9
	c-1.7-0.8-3.6-1.3-5.3-2.2c-3.4-1.9-4.7-4.6-4.2-8.4c0.4-3.3,2.8-5.9,6.3-6.7c3.7-0.9,7.3-0.4,10.6,1.6c2.1,1.2,2.2,1.9,1.1,4
	c0,0.1-0.1,0.1-0.1,0.2c-1.5,2.5-1.8,2.5-3.9,0.6c-1.9-1.7-4-2.3-6.4-1.5c-1.1,0.4-2,1.1-2.2,2.3c-0.2,1.3,0.4,2.2,1.5,2.8
	c1.2,0.7,2.5,1.2,3.8,1.7c1.7,0.8,3.6,1.4,5.2,2.3c3.3,1.9,5,4.7,4.5,8.5c-0.5,3.9-2.6,6.6-6.3,7.9c-3.5,1.2-6.9,1-10.3-0.5
	c-4-1.8-5.9-6-4.5-9.8c0.3-0.9,1-1.8,1.5-2.6C171.1,423.7,171.2,423.7,171.4,423.8z" fill="currentColor"/>
<path d="M203.7,436.8c-2.8,0-5.5,0-8.3,0c-1.4,0-1.7-0.3-1.8-1.7c-0.3-6.2,0-12.3,0.9-18.4c0.5-3.1,1-6.2,1.5-9.3
	c0.2-1,0.6-1.4,1.7-1.3c4.6,0.1,9.1,0,13.7,0c1.7,0,1.9,0.2,1.1,1.8c-0.5,1.1-1.1,2.2-1.6,3.3c-0.4,0.9-0.9,1.1-1.7,0.5
	c-1.8-1.2-3.8-1.5-5.9-1c-2.6,0.6-4.2,2.9-3.7,5.6c0.2,1.1,0.7,1.5,1.9,1.1c1.3-0.4,2.5-0.9,3.8-1.2c0.6-0.2,1.3-0.3,2-0.3
	c2-0.1,2.2,0.3,1.6,2.1c-0.5,1.2-1,2.4-1.4,3.7c-0.3,0.8-0.7,1-1.5,0.7c-1.1-0.3-2.2-0.5-3.3-0.3c-2.8,0.5-4.2,3.3-3.5,6.4
	c0.6,2.8,2.9,4.2,6,3.4c1.4-0.3,2.7-1,4-1.6c1.5-0.8,1.5-0.9,2.3,0.7c0.7,1.4,1.3,2.8,1.8,4.3c0.5,1.4,0.4,1.5-1,1.5
	C209.3,436.8,206.5,436.8,203.7,436.8z" fill="currentColor"/>
<path d="M235.6,425.3c1.7,3.6,0.6,9-4.1,11c-5.4,2.4-11.6,0.2-14.6-5.1c-3.4-6.2-2.7-15.3,1.6-20.9c2-2.6,4.7-4.2,8-4.7
	c2.6-0.3,5.1,0,7.4,1.3c1.5,0.9,2.4,2.2,2.4,4c0,1.6-0.8,2.6-2.4,3.1c-1.5,0.4-1.8,0.2-2.2-1.3c-0.3-1-0.9-1.6-1.9-1.8
	c-2.5-0.7-5.5,0.3-7,2.8c-2.6,4-2.9,8.3-0.8,12.6c1.2,2.5,3.4,3.9,6.2,4.2c3.1,0.3,5.5-1.1,6.7-4
	C235.2,426.3,235.4,425.9,235.6,425.3z" fill="currentColor"/>
</svg>
